<svg xmlns="http://www.w3.org/2000/svg" xmlns:xlink="http://www.w3.org/1999/xlink" viewBox="657.61425781 535.4319458 3367.84057617 2032.93725586"><ellipse cx="1360.217" cy="2218.548" fill="#daebff" rx="535.787" ry="241.821"/><ellipse cx="1141.08" cy="2493.219" fill="#daebff" rx="166.505" ry="75.15"/><ellipse cx="2334.386" cy="2162.256" fill="#daebff" rx="463.627" ry="75.15"/><path fill="#d3e2f9" d="M686.084 2000.723h3035.969v19.329H686.084z"/><path fill="#00b77b" d="M1055.419 1996.656s-35.057 73.294-97.425 100.524-149.81-7.077-198.838-47.532-96.612-97.987-101.345-140.882c-4.732-42.895 77.495-25.979 77.495-25.979s-36.338-52.128-51.457-89.358c-15.119-37.23 2.594-76.077 52.282-52.952l49.688 23.126s-38.105-81.029-37.417-131.632c.687-50.603 29.088-126.502 82.64-72.903 53.552 53.599 59.033 165.997 59.033 165.997s11.915-47.903 28.872-82.944c16.958-35.042 52.179-30.496 68.423 18.338 16.243 48.834 22.469 118.744 22.469 118.744s15.522-53.942 40.866-45.367c25.345 8.575 40.125 71.782 35.869 133.834-4.255 62.05-31.155 128.986-31.155 128.986z"/><path fill="#00d967" d="M1044.323 1865.442s-1.857-266.932-196.597-362.01c0 0-89.126 224.188 46.201 416.407s107.619 147.539 107.619 147.539l42.777-201.936z"/><path fill="none" stroke="#fff" stroke-linecap="round" stroke-linejoin="round" stroke-miterlimit="10" stroke-width="2" d="M895.804 1628.304l110.789 396.415"/><path fill="#1e2889" d="M2130.396 1813.808h408.027v244.942h-408.027z"/><path fill="#0542bf" d="M1932.469 2056.406h803.882v106.187h-803.882z"/><path fill="#006dfe" d="M3195.25 1834.449H1473.568c-49.796 0-90.163-40.367-90.163-90.163V625.595c0-49.796 40.367-90.163 90.163-90.163H3195.25c49.796 0 90.163 40.367 90.163 90.163v1118.691c.001 49.796-40.367 90.163-90.163 90.163z"/><linearGradient id="a" x1="1446.3691" x2="3222.4497" y1="1184.9406" y2="1184.9406" gradientUnits="userSpaceOnUse"><stop offset="0" stop-color="#b0d8ff"/><stop offset=".0154" stop-color="#b3d9ff"/><stop offset=".145" stop-color="#c4e1ff"/><stop offset=".3014" stop-color="#d1e7ff"/><stop offset=".5117" stop-color="#d8eaff"/><stop offset="1" stop-color="#daebff"/></linearGradient><path fill="url(#a)" d="M3138.807 1783.535H1530.012c-46.195 0-83.643-37.448-83.643-83.643V669.989c0-46.195 37.448-83.643 83.643-83.643h1608.795c46.195 0 83.643 37.448 83.643 83.643v1029.903c0 46.195-37.448 83.643-83.643 83.643z"/><path fill="#fff" d="M2073.433 716.571h-527.348c-11.529 0-20.876-9.346-20.876-20.876 0-11.529 9.346-20.876 20.876-20.876h527.348c11.529 0 20.875 9.346 20.875 20.876 0 11.529-9.346 20.876-20.875 20.876zm0 90.629h-527.348c-11.529 0-20.876-9.346-20.876-20.876 0-11.529 9.346-20.876 20.876-20.876h527.348c11.529 0 20.875 9.346 20.875 20.876 0 11.53-9.346 20.876-20.875 20.876zm0 90.63h-527.348c-11.529 0-20.876-9.346-20.876-20.875s9.346-20.875 20.876-20.875h527.348c11.529 0 20.875 9.346 20.875 20.875s-9.346 20.875-20.875 20.875zm0 90.63h-527.348c-11.529 0-20.876-9.346-20.876-20.876 0-11.529 9.346-20.876 20.876-20.876h527.348c11.529 0 20.875 9.346 20.875 20.876 0 11.53-9.346 20.876-20.875 20.876zm0 90.63h-527.348c-11.529 0-20.876-9.346-20.876-20.875s9.346-20.876 20.876-20.876h527.348c11.529 0 20.875 9.346 20.875 20.876 0 11.529-9.346 20.875-20.875 20.875zM2073.433 1267.221h-527.348c-11.529 0-20.876-9.346-20.876-20.876 0-11.529 9.346-20.876 20.876-20.876h527.348c11.529 0 20.875 9.346 20.875 20.876 0 11.529-9.346 20.876-20.875 20.876z"/><path fill="#00d967" d="M2073.433 1357.85h-527.348c-11.529 0-20.876-9.346-20.876-20.875s9.346-20.876 20.876-20.876h527.348c11.529 0 20.875 9.346 20.875 20.876 0 11.529-9.346 20.875-20.875 20.875z"/><path fill="#fff" d="M2073.433 1448.48h-527.348c-11.529 0-20.876-9.346-20.876-20.875s9.346-20.875 20.876-20.875h527.348c11.529 0 20.875 9.346 20.875 20.875s-9.346 20.875-20.875 20.875zm0 90.63h-527.348c-11.529 0-20.876-9.346-20.876-20.876 0-11.529 9.346-20.876 20.876-20.876h527.348c11.529 0 20.875 9.346 20.875 20.876 0 11.53-9.346 20.876-20.875 20.876zm0 90.63h-527.348c-11.529 0-20.876-9.346-20.876-20.875s9.346-20.876 20.876-20.876h527.348c11.529 0 20.875 9.346 20.875 20.876 0 11.529-9.346 20.875-20.875 20.875zM3084.927 1267.221h-876.482c-11.529 0-20.876-9.346-20.876-20.876 0-11.529 9.346-20.876 20.876-20.876h876.482c11.529 0 20.875 9.346 20.875 20.876 0 11.529-9.346 20.876-20.875 20.876zm0 90.629h-876.482c-11.529 0-20.876-9.346-20.876-20.875s9.346-20.876 20.876-20.876h876.482c11.529 0 20.875 9.346 20.875 20.876 0 11.529-9.346 20.875-20.875 20.875zm0 90.63h-876.482c-11.529 0-20.876-9.346-20.876-20.875s9.346-20.875 20.876-20.875h876.482c11.529 0 20.875 9.346 20.875 20.875s-9.346 20.875-20.875 20.875zm0 90.63h-876.482c-11.529 0-20.876-9.346-20.876-20.876 0-11.529 9.346-20.876 20.876-20.876h876.482c11.529 0 20.875 9.346 20.875 20.876 0 11.53-9.346 20.876-20.875 20.876zm0 90.63h-876.482c-11.529 0-20.876-9.346-20.876-20.875s9.346-20.876 20.876-20.876h876.482c11.529 0 20.875 9.346 20.875 20.876 0 11.529-9.346 20.875-20.875 20.875zM3125.155 1084.064h-929.404c-10.195 0-18.459-8.261-18.459-18.457V689.873c0-10.193 8.264-18.452 18.459-18.452h929.404c10.195 0 18.454 8.259 18.454 18.452v375.734c0 10.196-8.259 18.457-18.454 18.457z"/><path fill="#daebff" d="M3117.692 892.353v156.833c0 6.976-5.678 12.654-12.705 12.654H2212.37c-7.027 0-12.705-5.678-12.705-12.654V704.69c82.441 0 123.491 30.822 147.558 71.307 1.574 2.588 3.042 5.227 4.386 7.932 40.716 77.046 28.457 182.649 117.985 182.649 3.316 0 6.464-.39 9.445-1.181 1.911-.39 3.767-1.014 5.511-1.795 60.225-25.37 50.835-205.374 157.966-204.084 22.885.287 39.981 9.057 53.477 23.06 1.293 1.409 2.586 2.809 3.823 4.332 47.968 56.293 48.643 181.746 122.305 204.52 26.551 8.211 50.001-2.923 73.168-21.306 1.46-1.189 2.976-2.365 4.439-3.658 48.982-40.66 97.683-110.163 173.26-93.128 2.19.507 4.39 1.07 6.636 1.696 11.979 3.478 24.633 9.098 38.068 17.319z"/><path fill="#00b77b" d="M3117.75 860.684c-16.026.233-28.287 5.628-38.128 14.35-18.216 16.13-28.001 43.687-37.565 70.625-14.335 40.32-29.124 81.934-72.375 81.934-2.302 0-4.72-.117-7.194-.34-28.178-2.758-48.924-25.694-67.201-57.13-11.361-19.463-21.765-42.24-32.335-65.568-29.917-65.629-60.904-133.502-117.927-135.078-.672 0-1.29-.056-1.909-.056-17.263 0-31.383 6.576-43.302 17.488-24.122 21.988-39.479 61.627-54.491 100.431-22.216 57.416-45.157 116.804-96.951 117.983-37.228.791-54.151-13.275-69.335-39.927-5.851-10.348-11.473-22.607-17.886-36.609-11.696-25.641-26.313-57.528-50.496-94.641-16.251-24.855-36.888-40.655-59.048-50.217-59.718-26.034-130.011-6.974-151.943.172v-5.909c23.504-7.425 89.189-24.239 147.558-2.195 25.476 9.617 49.543 26.652 68.098 55.109 24.467 37.4 39.139 69.508 50.955 95.321 6.634 14.507 12.31 26.939 18.274 37.175 14.287 24.68 29.978 36.883 63.713 36.097 48.027-1.123 69.279-56.123 91.835-114.376 15.291-39.535 30.87-79.916 55.895-102.746 13.27-12.087 29.182-19.293 49.149-18.728 60.623 1.633 92.279 71.135 122.931 138.397 10.454 22.827 20.576 45.152 31.654 64.22 17.549 30.48 37.231 52.577 63.32 55.165 44.539 4.388 58.709-35.54 73.731-77.885 9.329-26.373 18.885-53.249 36.209-70.408 11.021-11.017 25.25-17.99 44.655-18.277l.109 5.623z"/><path fill="#b0d8ff" d="M1548.842 1083.646H935.175c-19.946 0-36.116-16.17-36.116-36.116V680.946c0-19.947 16.17-36.116 36.116-36.116h613.667c19.947 0 36.116 16.17 36.116 36.116v366.584c0 19.946-16.17 36.116-36.116 36.116z"/><path fill="#3998ff" d="M1584.958 678.77c0-19.507-15.813-35.32-35.32-35.32H946.932c-19.507 0-35.32 15.813-35.32 35.32v40.348h673.346V678.77z"/><linearGradient id="b" x1="1246.7155" x2="1250.054" y1="692.2" y2="1086.1874" gradientUnits="userSpaceOnUse"><stop offset="0" stop-color="#b0d8ff"/><stop offset=".0154" stop-color="#b3d9ff"/><stop offset=".145" stop-color="#c4e1ff"/><stop offset=".3014" stop-color="#d1e7ff"/><stop offset=".5117" stop-color="#d8eaff"/><stop offset="1" stop-color="#daebff"/></linearGradient><path fill="url(#b)" d="M911.612 719.119v316.504c0 19.507 15.813 35.32 35.32 35.32h602.707c19.506 0 35.32-15.813 35.32-35.32V719.119H911.612z"/><g fill="#fff"><circle cx="1422.614" cy="682.723" r="13.707" transform="rotate(-22.5 1422.5509798 682.69910771)"/><circle cx="1477.984" cy="682.723" r="13.707" transform="rotate(-22.5 1477.9177885 682.69940073)"/><circle cx="1533.353" cy="682.723" r="13.707" transform="matrix(.2298 -.9732 .9732 .2298 516.5999 2018.1993)"/></g><path fill="#fff" d="M1495.789 1044.38h-189.815c-29.462 0-53.345-23.884-53.345-53.345V823.893c0-29.462 23.883-53.345 53.345-53.345h189.815c29.462 0 53.345 23.883 53.345 53.345v167.141c0 29.462-23.883 53.346-53.345 53.346z"/><path fill="#0ace68" d="M1199.924 880.787c-12.147-53.808-60.207-94.006-117.687-94.006v120.683l117.687-26.677z"/><path fill="#fff" d="M1082.237 907.464V786.781c-66.651 0-120.682 54.031-120.682 120.683 0 66.651 54.031 120.682 120.682 120.682s120.683-54.031 120.683-120.682c0-9.172-1.057-18.091-2.996-26.677l-117.687 26.677z"/><circle cx="1082.237" cy="909.489" r="92.241" fill="#daebff"/><g><path fill="#ebf5ff" d="M3436.304 1329.209h565.784v754.56h-565.784z"/><path fill="#d1e3ff" d="M3465.776 1359.773h505.975v175.866h-505.975zm0 206.669h505.975v175.868h-505.975zm0 212.885h505.975v175.868h-505.975z"/><path fill="#f5fcff" d="M3736.736 1397.535c0 10.299-7.851 18.647-17.541 18.647-9.688 0-17.543-8.347-17.543-18.647 0-10.299 7.855-18.647 17.543-18.647 9.69 0 17.541 8.347 17.541 18.647zm0 205.893c0 10.299-7.851 18.647-17.541 18.647-9.688 0-17.543-8.347-17.543-18.647s7.855-18.649 17.543-18.649c9.69 0 17.541 8.35 17.541 18.649zm0 211.33c0 10.299-7.851 18.649-17.541 18.649-9.688 0-17.543-8.35-17.543-18.649 0-10.297 7.855-18.647 17.543-18.647 9.69 0 17.541 8.35 17.541 18.647z"/><path fill="#d1e3ff" d="M3312.138 1329.209h135.644v754.56h-135.644z"/></g><path fill="#daebff" d="M754.699 1241.115h205.586v90.897H754.699z"/><path fill="#ebf5ff" d="M837.832 1332.012h205.586v90.897H837.832z"/><path fill="#daebff" d="M3736.736 992.749h205.586v90.897h-205.586z"/><path fill="#ebf5ff" d="M3819.869 1083.646h205.586v90.897h-205.586z"/><g><path fill="#b0d8ff" d="M3635.278 1268.947h-842.899c-27.397 0-49.607-22.21-49.607-49.607V715.821c0-27.397 22.21-49.607 49.607-49.607h842.899c27.397 0 49.607 22.21 49.607 49.607v503.519c0 27.397-22.21 49.607-49.607 49.607z"/><path fill="#3998ff" d="M3684.885 712.832c0-26.793-21.72-48.513-48.513-48.513h-827.844c-26.793 0-48.513 21.72-48.513 48.513v55.42h924.871v-55.42z"/><linearGradient id="c" x1="3227.2373" x2="3217.2202" y1="733.7205" y2="1261.2638" gradientUnits="userSpaceOnUse"><stop offset="0" stop-color="#b0d8ff"/><stop offset=".0154" stop-color="#b3d9ff"/><stop offset=".145" stop-color="#c4e1ff"/><stop offset=".3014" stop-color="#d1e7ff"/><stop offset=".5117" stop-color="#d8eaff"/><stop offset="1" stop-color="#daebff"/></linearGradient><path fill="url(#c)" d="M2760.014 768.253v434.732c0 26.793 21.72 48.513 48.513 48.513h827.844c26.793 0 48.513-21.72 48.513-48.513V768.253h-924.87z"/><path fill="#006dfe" d="M3127.372 816.89h-168.415c-3.423 0-6.198-3.001-6.198-6.703 0-3.702 2.775-6.703 6.198-6.703h168.415c3.423 0 6.198 3.001 6.198 6.703-.001 3.702-2.775 6.703-6.198 6.703z"/><path fill="#00d967" d="M3099.604 876.955h-168.415c-3.423 0-6.198-3.001-6.198-6.703 0-3.702 2.775-6.703 6.198-6.703h168.415c3.423 0 6.198 3.001 6.198 6.703 0 3.702-2.775 6.703-6.198 6.703z"/><path fill="#006dfe" d="M3456.742 876.955h-289.208c-3.423 0-6.198-3.001-6.198-6.703 0-3.702 2.775-6.703 6.198-6.703h289.208c3.423 0 6.198 3.001 6.198 6.703 0 3.702-2.775 6.703-6.198 6.703zM3272.99 816.89h-85.113c-3.423 0-6.198-3.001-6.198-6.703 0-3.702 2.775-6.703 6.198-6.703h85.113c3.423 0 6.198 3.001 6.198 6.703 0 3.702-2.775 6.703-6.198 6.703zm149.41 0h-85.113c-3.423 0-6.198-3.001-6.198-6.703 0-3.702 2.775-6.703 6.198-6.703h85.113c3.423 0 6.198 3.001 6.198 6.703-.001 3.702-2.775 6.703-6.198 6.703zm-378.532 120.13h-110.639c-3.423 0-6.198-3.001-6.198-6.703 0-3.702 2.775-6.703 6.198-6.703h110.639c3.423 0 6.198 3.001 6.198 6.703 0 3.701-2.775 6.703-6.198 6.703z"/><path fill="#00d967" d="M3273.312 937.02h-168.415c-3.423 0-6.198-3.001-6.198-6.703 0-3.702 2.775-6.703 6.198-6.703h168.415c3.423 0 6.198 3.001 6.198 6.703 0 3.701-2.775 6.703-6.198 6.703z"/><path fill="#006dfe" d="M3396.126 937.02h-62.899c-3.423 0-6.198-3.001-6.198-6.703 0-3.702 2.775-6.703 6.198-6.703h62.899c3.423 0 6.198 3.001 6.198 6.703-.001 3.701-2.775 6.703-6.198 6.703zm-248.089 60.064h-98.675c-3.423 0-6.198-3.001-6.198-6.703 0-3.702 2.775-6.703 6.198-6.703h98.675c3.423 0 6.198 3.001 6.198 6.703-.001 3.702-2.776 6.703-6.198 6.703zm236.023 0h-168.415c-3.423 0-6.198-3.001-6.198-6.703 0-3.702 2.775-6.703 6.198-6.703h168.415c3.423 0 6.198 3.001 6.198 6.703 0 3.702-2.775 6.703-6.198 6.703zm-53.986 60.065h-315.583c-3.423 0-6.198-3.001-6.198-6.703 0-3.702 2.775-6.703 6.198-6.703h315.583c3.423 0 6.198 3.001 6.198 6.703 0 3.702-2.775 6.703-6.198 6.703zm236.024 0h-190.629c-3.423 0-6.198-3.001-6.198-6.703 0-3.702 2.775-6.703 6.198-6.703h190.629c3.423 0 6.198 3.001 6.198 6.703-.001 3.702-2.775 6.703-6.198 6.703zm-466.494 60.065h-168.415c-3.423 0-6.198-3.001-6.198-6.703 0-3.702 2.775-6.703 6.198-6.703h168.415c3.423 0 6.198 3.001 6.198 6.703 0 3.702-2.775 6.703-6.198 6.703z"/><path fill="#00d967" d="M3303.408 1117.214h-168.415c-3.423 0-6.198-3.001-6.198-6.703 0-3.702 2.775-6.703 6.198-6.703h168.415c3.423 0 6.198 3.001 6.198 6.703-.001 3.702-2.775 6.703-6.198 6.703z"/><path fill="#006dfe" d="M3319.623 1177.279h-255.797c-3.423 0-6.198-3.001-6.198-6.703 0-3.702 2.775-6.703 6.198-6.703h255.797c3.423 0 6.198 3.001 6.198 6.703 0 3.702-2.775 6.703-6.198 6.703zm-476.954-373.795h12.395v13.406h-12.395zm0 60.065h12.395v13.406h-12.395zm0 60.064h12.395v13.406h-12.395zm0 60.065h12.395v13.406h-12.395zm0 60.065h12.395v13.406h-12.395zm0 60.065h12.395v13.406h-12.395zm0 60.065h12.395v13.406h-12.395zM3500.984 1204.619l-45.173-20.752c-1.399-.642-2.307-2.127-2.307-3.77v-4.459c0-1.643.908-3.128 2.307-3.77l45.173-20.751c2.498-1.147 5.268.835 5.268 3.77v1.594c0 1.66-.926 3.156-2.345 3.788l-31.019 13.811c-3.127 1.392-3.127 6.183 0 7.575l31.02 13.812c1.419.632 2.345 2.128 2.345 3.788v1.594c-.001 2.935-2.771 4.918-5.269 3.77zm40.954-65.217l-20.866 78.03c-.469 1.752-1.952 2.958-3.638 2.958-2.521 0-4.338-2.615-3.638-5.234l20.866-78.03c.469-1.752 1.952-2.958 3.638-2.958 2.522 0 4.339 2.615 3.638 5.234zm57.985 44.466l-45.173 20.752c-2.498 1.147-5.268-.835-5.268-3.77v-1.594c0-1.66.926-3.156 2.345-3.788l31.02-13.812c3.127-1.392 3.127-6.183 0-7.575l-31.019-13.811c-1.419-.632-2.345-2.128-2.345-3.788v-1.594c0-2.935 2.77-4.917 5.268-3.77l45.173 20.751c1.398.642 2.307 2.127 2.307 3.77v4.459c-.001 1.643-.909 3.127-2.308 3.77z"/><g fill="#fff"><circle cx="3461.898" cy="718.262" r="18.828"/><circle cx="3537.951" cy="718.262" r="18.828"/><circle cx="3614.003" cy="718.262" r="18.828"/></g></g><g><path fill="#b0d8ff" d="M2935.393 1929.326h-667.88c-21.709 0-39.307-17.598-39.307-39.307V1491.05c0-21.709 17.598-39.307 39.307-39.307h667.88c21.709 0 39.307 17.598 39.307 39.307v398.969c0 21.709-17.599 39.307-39.307 39.307z"/><path fill="#3998ff" d="M2974.7 1488.682c0-21.23-17.21-38.44-38.44-38.44h-655.952c-21.23 0-38.44 17.21-38.44 38.44v43.913H2974.7v-43.913z"/><linearGradient id="d" x1="2609.8037" x2="2606.4653" y1="1525.5582" y2="1919.5455" gradientUnits="userSpaceOnUse"><stop offset="0" stop-color="#b0d8ff"/><stop offset=".0154" stop-color="#b3d9ff"/><stop offset=".145" stop-color="#c4e1ff"/><stop offset=".3014" stop-color="#d1e7ff"/><stop offset=".5117" stop-color="#d8eaff"/><stop offset="1" stop-color="#daebff"/></linearGradient><path fill="url(#d)" d="M2241.868 1532.595v344.465c0 21.23 17.21 38.44 38.44 38.44h655.952c21.23 0 38.44-17.21 38.44-38.44v-344.465h-732.832z"/><g fill="#fff"><circle cx="2798.014" cy="1492.985" r="14.918" transform="matrix(.2298 -.9732 .9732 .2298 702.1176 3873.1326)"/><circle cx="2858.275" cy="1492.985" r="14.918" transform="matrix(.2298 -.9732 .9732 .2298 748.5334 3931.7815)"/><circle cx="2918.536" cy="1492.985" r="14.918" transform="matrix(.2298 -.9732 .9732 .2298 794.9493 3990.4304)"/></g></g><g fill="#00d967"><path d="M2306.042 1596.918h60.258v226.334h-60.258zm105.819 29.394h60.258v196.94h-60.258zm105.818 58.788h60.258v138.152h-60.258zm105.819-44.091h60.258v182.243h-60.258zm105.819 44.091h60.258v138.152h-60.258zm105.818-44.091h60.258v182.243h-60.258zm-551.138 201.35h634.912v8.818h-634.912z"/></g><g><path fill="#9fd4ff" d="M1068.597 1688.729s16.622-237.746 144.084-364.626 374.661-141.309 470.221-85.648 153.84 133.471 179.974 316.598 18.295 434.876-30.933 541.831c-49.228 106.954-152.313 222.09-292.681 254.585s-292.475 55.843-449.667 16.814c-157.192-39.029-222.385-81.106-259.123-238.703-36.738-157.598 87.959-258.937 135.479-290.199 47.52-31.262 102.646-150.652 102.646-150.652z"/><path fill="#78cfff" d="M1721.369 1263.747c20.241 41.345 43.78 105.683 54.348 194.736 20.406 171.953 62.905 383.984 4.333 502.136-58.572 118.153-109.742 233.397-237.109 277.406-127.367 44.008-255.243 59.003-255.243 59.003s-260.897 1.867-415.239-54.561c41.652 69.458 106.681 98.39 217.137 125.814 157.192 39.029 309.299 15.681 449.667-16.814s243.453-147.631 292.681-254.585c49.228-106.954 57.067-358.704 30.933-541.83-22.424-157.121-68.513-236.712-141.508-291.305z"/><path fill="#b6e2ff" d="M1444.788 1384.884l-7.153-81.506-21.338-82.71c-75.587 16.774-150.14 50.203-203.616 103.435-127.462 126.88-144.084 364.626-144.084 364.626s-55.126 119.39-102.646 150.652c-45.221 29.749-160.323 122.963-139.695 267.725 64.267 13.012 155.966 18.927 214.319-32.243 97.543-85.536 315.895-465.248 315.895-465.248l88.318-224.731z"/><path fill="#64c8ff" d="M1619.371 1366.539c55.893-52.634 44.188-117.526 37.809-140.071-39.159-14.648-92.602-21.208-150.439-18.151l-21.609 38.999-4.48 54.647s-36.502 176.837-36.721 194.297c-.219 17.46-33.109 97.689-39.169 109.451-6.059 11.762-111.187 185.816-111.187 185.816s-156.98 183.068-155.694 189.83c1.286 6.762-1.163 382.55-1.163 382.55l24 18.004c33.238 4.561 66.197 6.641 98.813 6.76-3.638-20.501-9.425-46.77-18.44-80.368-34.627-129.061 6.342-283.465 6.342-283.465s18.608 201.281 66.473 247.491c47.865 46.208 98.429 27.357 81.458-21.747-16.971-49.103 16.544-105.416 16.544-105.416s305.898-129.03 325.851-214.93c19.953-85.9-86.476-96.207-86.476-96.207s78.988-36.234 103.531-85.36c24.542-49.125-30.7-223.788-64.609-274.217-33.907-50.428-85.244-88.475-70.834-107.913z"/><defs><path id="e" d="M1191.734 2358.399s4.988 28.556 11.841 50.696c6.852 22.138 27.271 35.128 25.941 58.243-1.33 23.115-64.341 43.068-107.731 62.173-43.39 19.106-86.169 21.621-90.739-13.949-4.57-35.571 72.575-44.615 88.377-95.413 15.799-50.795 5.092-55.023 5.092-55.023l67.219-6.727z"/></defs><use fill="#ffab00" overflow="visible" xlink:href="#e"/><clipPath id="f"><use overflow="visible" xlink:href="#e"/></clipPath><path fill="#fe8e00" d="M1090.618 2428.468s50.334-12.733 69.018 1.711c18.684 14.444 28.179 62.921 21.64 79.827l43.287-6.447 31.079-36.685-21.827-74.821-49.261-46.846-99.742 21.878 5.806 61.383z" clip-path="url(#f)"/><defs><path id="g" d="M1364.986 2031.548s-24.619 15.305-45.695 24.945c-21.074 9.64-44.365 3.066-60.718 19.458-16.352 16.392 10.749 76.675 25.409 121.761 14.66 45.087 41.285 78.665 70.856 58.374 29.571-20.291-15.08-83.846 12.274-129.474 27.354-45.623 37.64-40.455 37.64-40.455l-39.766-54.609z"/></defs><use fill="#ffab00" overflow="visible" xlink:href="#g"/><clipPath id="h"><use overflow="visible" xlink:href="#g"/></clipPath><path fill="#fe8e00" d="M1302.097 2056.688s24.112 15.497 25.329 61.644c1.217 46.147 33.953 143.143 33.953 143.143s13.502-28.213 14.74-30.372c1.238-2.159-10.427-71.198-10.427-71.198s22.729-33.632 23.904-34.68c1.175-1.048 16.951-36.563 16.951-36.563l-65.18-68.935-39.27 36.961z" clip-path="url(#h)"/><defs><path id="i" d="M1570.363 1816.255s110.649 38.924 129.437 75.948 7.926 95.487-105.25 144.764c-113.176 49.277-215.05 95.856-215.05 95.856s-53.043-35.356-52.114-96.616l146.647-84.99s-36.407-21.308-80.17-16.282c-43.763 5.026-211.458 28.06-211.458 28.06s19.661 173.076 33.801 413.56c0 0-52.476 40.48-111.082 12.609 0 0-79.897-396.961-75.043-462.456s47.552-90.926 108.443-103.057c60.89-12.131 185.718-50.71 185.718-50.71l246.121 43.314z"/></defs><use fill="#1e2889" overflow="visible" xlink:href="#i"/><clipPath id="j"><use overflow="visible" xlink:href="#i"/></clipPath><path fill="#17216b" d="M1028.078 1864.167s60.964-13.415 95.216 30.989c34.253 44.404 89.149 156.786 89.149 156.786l155.37-36.58s68.348-35.371 132.095-58.486c63.747-23.115 135.366-66.962 178.576-23.248 43.21 43.713-11.612 105.772-11.612 105.772l83.837-101.649-19.829-140.842-329.273-70.829-291.31 25.722-82.219 112.365z" clip-path="url(#j)"/><defs><path id="k" d="M1695.856 1595.17c-16.408-49.429-48.795-139.531-93.876-156.968-45.082-17.437-110.694-18.768-110.694-18.768l-18.803 2.457-57.113-1.96c-100.527-.909-116.415 24.66-135.978 59.774-17.629 31.643-35.544 80.742-35.544 80.742l-67.666 204.042c147.369 112.923 406.089 62.479 406.089 62.479s95.285-43.053 125.094-67.269c29.809-24.217 4.899-115.1-11.509-164.529zm-369.629 26.965l-4.544 79.594-45.244-12.568s28.049-82.055 53.57-133.271l-3.782 66.245zm300.767 71.105c-6.602 18.017-55.761 49.211-55.761 49.211l13.738-162.53c-.001.001 48.625 95.303 42.023 113.319z"/></defs><use fill="#ffab00" overflow="visible" xlink:href="#k"/><clipPath id="l"><use overflow="visible" xlink:href="#k"/></clipPath><path fill="#fe8e00" d="M1587.289 1597.89l-2.318-17.969s-3.177-41.985 3.424-79.511c0 0-31.156 67.337-45.517 152.912-14.361 85.575-169.841 104.568-169.841 104.568l-2.378 61.177 118.155-9.573 19.959-17.657 62.46-49.386 24.559-98.23-8.503-46.331zm106.113-32.959c-.127 2.222 19.022 96.399 14.706 132.94s-14.458 48.225-65.681 76.514c-51.223 28.289-123.001 55.405-123.001 55.405l2.891 17.701 60.777-.377 49.907-24.775 81.776-30.447s22.717-32.704 23.732-50.482c1.015-17.778 11.047-17.763-.193-55.192-11.242-37.429-44.914-121.287-44.914-121.287zm-374.963 21.234l9.986-27.059s-6.462-17.609 4.343-76.075l-52.353 136.49-16.02 78.938 30.182-37.573 23.862-74.721z" clip-path="url(#l)"/><path fill="#ffaca6" d="M1380.102 1800.098s17.428-22.137 37.055-29.098c19.627-6.962 91.615 20.837 91.615 20.837l16.788 42.763s-25.444 16.105-55.684 8.805c-30.24-7.3-77.932-6.679-77.932-6.679l-11.842-36.628z"/><path fill="#78c2ff" d="M1112.1405712 1812.6611058l402.3661824 22.971627-1.675059 29.3399808-402.3661824-22.971627z"/><path fill="#0542bf" d="M1405.925 1858.819l-350.441-20.007-36.669-248.474 350.441 20.007z"/><path fill="#006dfe" d="M1379.686 1857.321l-350.441-20.007-36.669-248.474 350.441 20.007z"/><ellipse cx="1175.435" cy="1697.003" fill="#fff" rx="31.302" ry="40.067" transform="rotate(-8.506 1175.45059055 1697.40024693)"/><g><path fill="#ffaca6" d="M1423.691 1388.488c-.874 8.963-3.279 19.498-8.322 31.443 0 0 9.227 22.079 34.275 19.422s41.641-19.919 41.641-19.919-5.033-9.655-7.595-26.703c-21.88-11.349-44.789-8.524-59.999-4.243z"/><path fill="#ea756c" d="M1483.69 1392.731c-1.919-12.769-2.455-29.678 1.559-49.818l-15.398-10.169-51.355 20.85s7.375 12.544 5.195 34.894c15.21-4.281 38.119-7.106 59.999 4.243z"/></g><g><defs><path id="m" d="M1383.229 1229.327s-27.564 3.949-38.998-39.385c-8.859-33.577 10.903-46.011 24.882-54.502 13.978-8.492 15.036-15.696 33.002-25.615 23.788-13.134 33.334 1.903 46.456-6.638s38.047-9.041 50.817 8.103c12.77 17.144 21.227 9.201 40.392 18.47 19.165 9.269 11.081 33.704 19.96 40.9 8.879 7.195 23.176 10.613 21.23 31.682-1.946 21.069-16.338 25.822-7.532 40.817 8.805 14.995 4.246 49.292-18.664 53.558-22.911 4.266-34.582 19.95-37.301 35.03-2.719 15.08-27.608 21.462-41.387 15.474s-92.857-117.894-92.857-117.894z"/></defs><use fill="#191e56" overflow="visible" xlink:href="#m"/><clipPath id="n"><use overflow="visible" xlink:href="#m"/></clipPath><path fill="#10163d" d="M1334.762 1159.786s6.438 11.49 87.839 9.997 81.571 68.747 108.358 82.818c26.787 14.071 53.731 31.494 53.731 31.494l-51.767 65.911-45.111 34.699-149.95-74.57-3.1-150.349z" clip-path="url(#n)"/></g><g><defs><path id="o" d="M1380.836 1206.152s-19.859 80.988-4.724 128.301c15.135 47.313 59.157 31.246 94.818 5.413l7.502-27.255s18.633 3.944 29.95-18.542-12.97-26.659-12.97-26.659-9.374-6.666-10.279-20.095c0 0-15.167 6.938-32.184-17.165 0 0-8.898-15-22.395-9.639-13.498 5.361-28.308 1.171-35.06-10.734-6.753-11.906-14.658-3.625-14.658-3.625z"/></defs><use fill="#ffaca6" overflow="visible" xlink:href="#o"/><clipPath id="p"><use overflow="visible" xlink:href="#o"/></clipPath><path fill="#ea756c" d="M1360.547 1224.874s4.566 12.409 30.336 15.191 31.781 7.306 51.388 19.016c19.607 11.71 30.251 25.416 53.45 24.232 23.199-1.184 21.5-10.478 21.5-10.478l-18.835-26.436-56.797-30.276-45.84-12.291-17.353-3.58-17.849 24.622z" clip-path="url(#p)"/></g></g></svg>